# xmcd CD database file
#
# Track frame offsets:
#	150
#	21772
#	33950
#	52448
#	69960
#	87700
#	105851
#	122493
#	139599
#	152838
#	170483
#
# Disc length: 2541 seconds
#
# Revision: 0
# Processed by: cddbd v1.5.2PL0 Copyright (c) Steve Scherf et al.
# Submitted via: CDex 1.70beta2
#
DISCID=8d09eb0b
DTITLE=Ron Spencer Band - Soul Reason
DYEAR=2013
DGENRE=Blues
TTITLE0=Workin' On Her Sins
TTITLE1=Ain't Got Nothin'
TTITLE2=Puzzlement
TTITLE3=Nothin' Like You
TTITLE4=Here I Am Again
TTITLE5=If That's Love
TTITLE6=Move Back to Missouri
TTITLE7=You Ain't Gone
TTITLE8=Lookin' For a Woman
TTITLE9=Soul Reason
TTITLE10=Six of One
EXTD=YEAR: 2013
EXTT0=
EXTT1=
EXTT2=
EXTT3=
EXTT4=
EXTT5=
EXTT6=
EXTT7=
EXTT8=
EXTT9=
EXTT10=
PLAYORDER=
